<svg width="53" height="47" viewBox="0 0 53 47" fill="none" xmlns="http://www.w3.org/2000/svg">
<path d="M36.9805 18.692L37.3393 18.7658L37.5178 18.4461C38.3194 17.0105 39.8518 16.0398 41.6054 16.0398C44.1848 16.0398 46.2841 18.139 46.2841 20.7185C46.2841 23.298 44.1849 25.3972 41.6054 25.3972C39.1866 25.3972 37.1892 23.5507 36.9507 21.1933L36.9137 20.8279L36.554 20.7539L31.1248 19.6369L30.7661 19.5631L30.5875 19.8829C29.7859 21.3185 28.2535 22.2892 26.4999 22.2892C25.4998 22.2892 24.5734 21.973 23.8115 21.4357L23.5112 21.224L23.2195 21.4474L15.9574 27.0065L15.6658 27.2297L15.7916 27.5748C15.9735 28.0735 16.0732 28.6117 16.0732 29.1736C16.0732 31.753 13.9738 33.8523 11.3945 33.8523C8.81504 33.8523 6.7158 31.753 6.7158 29.1736C6.7158 26.5942 8.81504 24.4949 11.3945 24.4949C12.3945 24.4949 13.3209 24.8111 14.0828 25.3483L14.3831 25.5601L14.6749 25.3367L21.9369 19.7776L22.2286 19.5544L22.1027 19.2093C21.9208 18.7106 21.8212 18.1724 21.8212 17.6105C21.8212 15.0311 23.9206 12.9318 26.4999 12.9318C28.9187 12.9318 30.9161 14.7784 31.1546 17.1356L31.1916 17.501L31.5513 17.575L36.9805 18.692ZM25.4473 40.5682V40.0682H24.9473H0.5V0.5H52.5V40.0682H28.0527H27.5527V40.5682V43.6786V44.1786H28.0527H30.6619V46.2841H22.3381V44.1786H24.9473H25.4473V43.6786V40.5682ZM50.3945 3.10547V2.60547H49.8945H3.10547H2.60547V3.10547V6.21591V6.71591H3.10547H49.8945H50.3945V6.21591V3.10547ZM3.10547 8.82137H2.60547V9.32137V37.4627V37.9627H3.10547H49.8945H50.3945V37.4627V9.32137V8.82137H49.8945H3.10547ZM8.82137 29.1736C8.82137 30.593 9.97534 31.7468 11.3946 31.7468C12.814 31.7468 13.9678 30.593 13.9678 29.1736C13.9678 27.7542 12.8138 26.6004 11.3946 26.6004C9.97534 26.6004 8.82137 27.7542 8.82137 29.1736ZM23.9268 17.6105C23.9268 19.0299 25.0808 20.1837 26.5 20.1837C27.9192 20.1837 29.0732 19.0299 29.0732 17.6105C29.0732 16.1911 27.9193 15.0373 26.5 15.0373C25.0807 15.0373 23.9268 16.1911 23.9268 17.6105ZM39.0322 20.7184C39.0322 22.1377 40.1861 23.2917 41.6054 23.2917C43.0247 23.2917 44.1786 22.1378 44.1786 20.7184C44.1786 19.2991 43.0248 18.1452 41.6054 18.1452C40.186 18.1452 39.0322 19.2992 39.0322 20.7184Z" fill="#ABBA16" stroke="#ABBA16"/>
</svg>
