<svg width="42" height="50" viewBox="0 0 42 50" fill="none" xmlns="http://www.w3.org/2000/svg">
<path d="M8.49288 47.75C12.548 48.6333 16.6814 49.1079 20.8312 49.1667C24.981 49.1079 29.1144 48.6333 33.1695 47.75C34.9282 49.1462 37.0916 49.9356 39.3362 50C40.3245 49.9873 41.1812 49.3127 41.4254 48.355C42.1029 46.3792 41.2862 42.8633 39.2504 40.9583C40.1916 35.6881 40.7202 30.3525 40.8312 25C40.7213 19.6476 40.1938 14.312 39.2537 9.04167C41.2895 7.13667 42.1062 3.625 41.4287 1.645C41.1845 0.687267 40.3278 0.0127111 39.3395 0C37.095 0.064426 34.9315 0.85378 33.1729 2.25C29.1167 1.36644 24.9821 0.891844 20.8312 0.833333C16.6814 0.892067 12.548 1.36666 8.49288 2.25C6.73331 0.853105 4.56861 0.0637112 2.32288 0C1.33458 0.0127111 0.477893 0.687267 0.233708 1.645C-0.443792 3.62083 0.372875 7.13667 2.40871 9.04167C1.46857 14.312 0.941138 19.6476 0.831208 25C0.941138 30.3524 1.46857 35.688 2.40871 40.9583C0.372875 42.8633 -0.443792 46.3792 0.233708 48.355C0.477893 49.3127 1.33458 49.9873 2.32288 50C4.56861 49.9363 6.73331 49.1469 8.49288 47.75ZM1.81038 47.8125C1.51125 46.1771 1.86097 44.4894 2.78538 43.1075C2.83788 43.3908 2.88788 43.6617 2.93621 43.9175C2.98708 44.2142 3.19404 44.4605 3.47761 44.5616C3.76118 44.6627 4.07725 44.6031 4.30443 44.4055C4.5316 44.2079 4.63454 43.9032 4.57371 43.6083C3.35717 37.4754 2.66273 31.2503 2.49788 25C2.66259 18.7489 3.35702 12.523 4.57371 6.38917C4.64213 5.94453 4.34529 5.52586 3.90306 5.44326C3.46084 5.36067 3.03289 5.64398 2.93621 6.08333C2.88788 6.33917 2.83788 6.61 2.78538 6.89333C1.86097 5.51143 1.51125 3.82378 1.81038 2.18833C1.98788 1.66667 2.21454 1.66667 2.32288 1.66667C3.70887 1.72028 5.06413 2.09088 6.28454 2.75L6.03454 2.81083C5.59962 2.93106 5.3394 3.37561 5.44751 3.81371C5.55562 4.2518 5.99279 4.52425 6.43371 4.42833C11.1437 3.23897 15.9742 2.59199 20.8312 2.5C25.6883 2.59084 30.5191 3.2367 35.2295 4.425C35.6705 4.52092 36.1076 4.24846 36.2157 3.81037C36.3239 3.37228 36.0636 2.92772 35.6287 2.8075L35.3787 2.74667C36.5992 2.08883 37.9541 1.71938 39.3395 1.66667C39.4479 1.66667 39.6729 1.66667 39.852 2.185C40.1512 3.82045 39.8014 5.5081 38.877 6.89C38.8245 6.60667 38.7745 6.33583 38.7262 6.08C38.6753 5.78326 38.4684 5.53703 38.1848 5.43589C37.9012 5.33475 37.5852 5.39443 37.358 5.592C37.1308 5.78957 37.0279 6.09431 37.0887 6.38917C38.3054 12.523 38.9998 18.7489 39.1645 25C38.9998 31.2511 38.3054 37.477 37.0887 43.6108C37.0279 43.9057 37.1308 44.2104 37.358 44.408C37.5852 44.6056 37.9012 44.6652 38.1848 44.5641C38.4684 44.463 38.6753 44.2167 38.7262 43.92C38.7745 43.6642 38.8245 43.3933 38.877 43.11C39.8014 44.4919 40.1512 46.1796 39.852 47.815C39.6745 48.3333 39.4479 48.3333 39.3395 48.3333C37.9536 48.2797 36.5983 47.9091 35.3779 47.25L35.6279 47.1892C36.0628 47.0689 36.323 46.6244 36.2149 46.1863C36.1068 45.7482 35.6696 45.4758 35.2287 45.5717C30.5187 46.761 25.6882 47.408 20.8312 47.5C15.9741 47.4092 11.1433 46.7633 6.43288 45.575C6.1406 45.4942 5.82751 45.5786 5.61538 45.7952C5.40324 46.0119 5.32555 46.3267 5.41253 46.6172C5.4995 46.9077 5.7374 47.128 6.03371 47.1925L6.28371 47.2533C5.06326 47.9112 3.70832 48.2806 2.32288 48.3333C2.21454 48.3333 1.98788 48.3333 1.81038 47.815V47.8125Z" fill="#ABBA16"/>
<path d="M8.33121 25C8.33121 31.9036 13.9276 37.5 20.8312 37.5C27.7348 37.5 33.3312 31.9036 33.3312 25C33.3312 18.0964 27.7348 12.5 20.8312 12.5C13.9309 12.5078 8.33902 18.0997 8.33121 25ZM20.8312 35.8333C17.9137 35.8336 15.1202 34.6532 13.087 32.5608C13.5591 31.9932 14.2596 31.6654 14.9979 31.6667C15.5608 31.6682 16.1059 31.8646 16.5404 32.2225C16.7393 32.3836 17.0012 32.4443 17.2507 32.3872C17.5002 32.3301 17.7096 32.1616 17.8187 31.93C18.3226 30.8616 19.3514 30.1371 20.527 30.0225C20.4116 30.4686 20.2591 30.9043 20.0712 31.325C19.9447 31.5972 19.9744 31.9165 20.149 32.1607C20.3235 32.405 20.616 32.5364 20.9145 32.5049C21.213 32.4733 21.4715 32.2837 21.5912 32.0083C21.8392 31.4558 22.037 30.8821 22.182 30.2942C22.9126 30.6249 23.5016 31.2048 23.8437 31.93C23.9528 32.1616 24.1622 32.3301 24.4117 32.3872C24.6612 32.4443 24.9231 32.3836 25.122 32.2225C25.5566 31.8646 26.1016 31.6682 26.6645 31.6667C27.4028 31.6654 28.1033 31.9932 28.5754 32.5608C26.5422 34.6532 23.7487 35.8336 20.8312 35.8333ZM21.4337 22.285C21.3785 21.4101 21.6698 20.5486 22.2445 19.8867C23.0529 19.1842 24.5712 19.3617 25.1945 19.47C25.2206 19.4837 25.2399 19.5075 25.2479 19.5358C25.2704 20.1642 25.2354 21.7025 24.4429 22.3942C23.6504 23.0858 22.1329 22.9158 21.5645 22.8217L21.4337 22.285ZM19.9462 23.2192C19.407 23.6142 18.1804 24.39 17.1962 24.1492C16.248 23.7407 15.513 22.9555 15.1679 21.9825C15.1611 21.949 15.168 21.9142 15.187 21.8858C15.8748 21.3244 16.7092 20.9722 17.5912 20.8708C17.728 20.8702 17.8643 20.8864 17.997 20.9192C18.8045 21.2506 19.4539 21.8794 19.8112 22.6758L19.9462 23.2192ZM31.6645 25C31.6649 27.2476 30.9611 29.4388 29.652 31.2658C28.8698 30.4551 27.7911 29.9981 26.6645 30C26.0448 30.0017 25.4336 30.1442 24.877 30.4167C24.2735 29.5848 23.4304 28.9571 22.4604 28.6175C22.5684 27.2541 22.4499 25.8822 22.1095 24.5575C22.2762 24.5692 22.4429 24.5842 22.6229 24.5842C23.6754 24.6334 24.7105 24.3028 25.5395 23.6525C26.8237 22.5258 26.9562 20.555 26.9145 19.4758C26.8736 18.6612 26.2783 17.9814 25.4762 17.8333C24.4195 17.6467 22.4512 17.5 21.1479 18.6358C20.6582 19.0864 20.296 19.6581 20.0979 20.2933C19.6309 19.8185 19.0454 19.4773 18.402 19.305C16.8354 18.9075 15.2462 19.7642 14.1895 20.555C13.5383 21.0598 13.3199 21.9463 13.662 22.6958C14.2279 23.8858 15.232 25.3858 16.7987 25.7725C17.0619 25.837 17.3319 25.8694 17.6029 25.8692C18.6301 25.818 19.6218 25.4774 20.4637 24.8867C20.7568 26.0129 20.8693 27.1785 20.797 28.34C19.2044 28.3578 17.7148 29.1311 16.7837 30.4233C16.2282 30.1488 15.6175 30.004 14.9979 30C13.8713 29.9981 12.7926 30.4551 12.0104 31.2658C9.30145 27.4529 9.34714 22.3315 12.1237 18.5675C14.9002 14.8035 19.7798 13.2478 24.2226 14.7103C28.6653 16.1728 31.6667 20.3227 31.6645 25Z" fill="#ABBA16"/>
<path d="M6.74788 10.7858C11.2724 9.18741 16.0327 8.35843 20.8312 8.33333C25.6297 8.35843 30.39 9.18741 34.9145 10.7858C35.1953 10.885 35.5076 10.8268 35.7338 10.6332C35.9601 10.4397 36.0659 10.1401 36.0113 9.84741C35.9568 9.5547 35.7503 9.31331 35.4695 9.21417C26.0052 5.83334 15.6622 5.83334 6.19788 9.21417C5.76387 9.36743 5.53628 9.8435 5.68954 10.2775C5.8428 10.7115 6.31887 10.9391 6.75288 10.7858H6.74788Z" fill="#ABBA16"/>
<path d="M6.19537 40.7858C10.8938 42.4606 15.8433 43.3221 20.8312 43.3333C25.8191 43.3221 30.7687 42.4606 35.467 40.7858C35.901 40.6326 36.1286 40.1565 35.9754 39.7225C35.8221 39.2885 35.346 39.0609 34.912 39.2142C30.3883 40.8123 25.6288 41.6413 20.8312 41.6667C16.0327 41.6416 11.2724 40.8126 6.74788 39.2142C6.31387 39.0609 5.8378 39.2885 5.68454 39.7225C5.53128 40.1565 5.75887 40.6326 6.19288 40.7858H6.19537Z" fill="#ABBA16"/>
</svg>
