<svg width="58" height="50" viewBox="0 0 58 50" fill="none" xmlns="http://www.w3.org/2000/svg">
<path d="M1.20378 50C0.806531 50 0.418909 49.8026 0.187781 49.4438C-0.168541 48.8829 -0.00241796 48.1389 0.556142 47.7826L27.0396 30.9295C27.5163 30.6262 28.1374 30.6936 28.5371 31.0932L37.3152 39.8713L55.7236 21.4629C56.193 20.9934 56.9562 20.9934 57.4257 21.4629C57.8952 21.9324 57.8952 22.6956 57.4257 23.1651L38.165 42.4257C37.6956 42.8952 36.9324 42.8952 36.4629 42.4257L27.5139 33.4767L1.85142 49.8122C1.65159 49.9398 1.42769 50 1.20378 50Z" fill="#ABBA16"/>
<path d="M56.5783 33.1469C55.9138 33.1469 55.3745 32.6076 55.3745 31.9431V23.5166H46.9479C46.2834 23.5166 45.7441 22.9773 45.7441 22.3128C45.7441 21.6483 46.2834 21.109 46.9479 21.109H56.5783C57.2427 21.109 57.782 21.6483 57.782 22.3128V31.9431C57.782 32.6076 57.2427 33.1469 56.5783 33.1469Z" fill="#ABBA16"/>
<path d="M19.6351 21.2808C17.1023 21.2808 14.5045 20.3274 12.5351 18.4326C10.4718 16.4512 9.97101 13.9497 9.44134 11.3014C8.85389 8.35448 8.24477 5.30648 5.334 2.50887C4.99693 2.18384 4.87896 1.69029 5.03064 1.2497C5.18473 0.804295 5.58198 0.488901 6.04905 0.445564L6.37889 0.411858C12.3593 -0.197261 19.8012 -0.933983 25.6468 4.68291C27.4982 6.45971 28.6178 9.18751 28.6442 11.9731C28.6707 14.6262 27.739 17.0338 26.02 18.748C24.3274 20.4406 22.0113 21.2808 19.6351 21.2808ZM8.6372 2.61239C10.7174 5.38593 11.288 8.25096 11.8032 10.8319C12.2751 13.1937 12.6819 15.2378 14.2011 16.6992C16.7797 19.1742 21.46 19.9085 24.3154 17.0507C25.5722 15.7963 26.2535 14.0003 26.2342 11.9996C26.2126 9.84478 25.3699 7.75981 23.9759 6.42119C19.5147 2.13328 13.8761 2.15013 8.6372 2.61239Z" fill="#ABBA16"/>
<path d="M41.1203 16.8581C40.9518 16.8581 40.7809 16.8533 40.6123 16.8412C38.6574 16.7257 36.96 15.9504 35.8309 14.6575C32.6143 10.9763 33.6785 5.9469 36.5098 3.39726C41.2841 -0.900276 47.1273 -0.134664 51.8173 0.484086L52.07 0.517792C52.5347 0.577982 52.9223 0.905413 53.0644 1.35563C53.204 1.80585 53.0692 2.29459 52.7201 2.60998C50.4521 4.65162 49.9128 6.96049 49.3928 9.19232C48.9282 11.1834 48.449 13.2419 46.7324 14.7876C45.2686 16.1021 43.2005 16.8581 41.1203 16.8581ZM46.2052 2.41015C43.3642 2.41015 40.5401 3.00483 38.1181 5.18851C36.1342 6.97253 35.3903 10.4948 37.6414 13.0709C38.3444 13.8751 39.4495 14.359 40.7544 14.436C42.3627 14.5203 44.0046 13.9906 45.1193 12.9915C46.275 11.9514 46.6169 10.49 47.0478 8.63858C47.4692 6.82567 47.9723 4.67569 49.4747 2.6148C48.3985 2.49923 47.2982 2.41015 46.2052 2.41015Z" fill="#ABBA16"/>
<path d="M30.5559 29.0405C29.9877 29.0405 29.4797 28.636 29.3737 28.0558C27.7895 19.4968 19.6519 12.4498 19.5676 12.38C19.062 11.949 19.0043 11.1882 19.4352 10.685C19.8662 10.177 20.6246 10.1144 21.1326 10.5502C21.4937 10.8584 29.9997 18.2063 31.7428 27.6176C31.8632 28.27 31.4322 28.8984 30.7774 29.0188C30.7027 29.0332 30.6305 29.0405 30.5559 29.0405Z" fill="#ABBA16"/>
<path d="M30.5583 29.0356C30.5559 29.0356 30.5535 29.0356 30.5511 29.0356C29.889 29.0308 29.3521 28.4939 29.3545 27.8319C29.3545 27.4153 29.5062 17.6068 40.4583 11.0125C41.0265 10.6706 41.7656 10.8511 42.1099 11.4242C42.4542 11.9923 42.2688 12.7339 41.7006 13.0782C31.9571 18.9455 31.7669 27.4827 31.7645 27.8439C31.7572 28.5012 31.2204 29.0356 30.5583 29.0356Z" fill="#ABBA16"/>
</svg>
